<?xml version="1.0" encoding="utf-8"?>
<!-- Generator: Adobe Illustrator 26.3.1, SVG Export Plug-In . SVG Version: 6.00 Build 0)  -->
<svg version="1.1" id="Layer_1" xmlns="http://www.w3.org/2000/svg" xmlns:xlink="http://www.w3.org/1999/xlink" x="0px" y="0px"
	 viewBox="0 0 16 16" style="enable-background:new 0 0 16 16;" xml:space="preserve">
<style type="text/css">
	.st0{fill:#373155;}
</style>
<g id="Group_3_00000010988992391228977260000008617054622579424160_" transform="translate(158.971 200.366)">
	<path id="Path_1492_00000132084000253478551290000010008452338230452916_" class="st0" d="M-152.1-199.4h-1.6
		c-0.8,0-1.5,0.4-1.9,1.1l-1.5,2.6l3.1,3.1c0.3,0.3,0.8,0.3,1.1,0c0.1-0.1,0.2-0.3,0.2-0.5L-152.1-199.4z"/>
	<path id="Path_1493_00000052822953707736750970000000868354230822614941_" class="st0" d="M-144.9-188.8l1.4-2.4
		c0.4-0.7,0.4-1.5,0-2.2l-1.2-2l-6.4,3.2c-0.4,0.2-0.5,0.7-0.4,1.1c0.1,0.2,0.3,0.3,0.5,0.4L-144.9-188.8z"/>
	<path id="Path_1494_00000121242432233369239820000009162714683658190772_" class="st0" d="M-145.2-196.4l-1.1-1.9
		c-0.4-0.7-1.1-1.1-1.9-1.1h-2.9l-1.3,6.1c-0.1,0.4,0.2,0.9,0.6,1c0.2,0,0.4,0,0.6-0.1L-145.2-196.4z"/>
	<path id="Path_1495_00000096782210783768337140000018356906743138731405_" class="st0" d="M-151.2-185.4h3c0.8,0,1.5-0.4,1.9-1.1
		l0.8-1.5l-5.8-2.7c-0.4-0.2-0.9,0-1.1,0.4c-0.1,0.2-0.1,0.4,0,0.5L-151.2-185.4z"/>
	<path id="Path_1496_00000152234360773818846020000003746690586539310744_" class="st0" d="M-157.7-194.8l-0.8,1.3
		c-0.4,0.7-0.4,1.5,0,2.2l1.2,2l3.2-1.5c0.4-0.2,0.6-0.7,0.4-1.1c-0.1-0.1-0.1-0.2-0.3-0.3L-157.7-194.8z"/>
	<path id="Path_1497_00000100345464348239853100000008938629693328258958_" class="st0" d="M-156.8-188.6l1.2,2.1
		c0.4,0.7,1.1,1.1,1.9,1.1h1.5l-0.4-4.6c0-0.4-0.4-0.8-0.9-0.7c-0.1,0-0.3,0.1-0.4,0.1L-156.8-188.6z"/>
</g>
</svg>
