<?xml version="1.0" encoding="utf-8"?>
<!-- Generator: Adobe Illustrator 26.3.1, SVG Export Plug-In . SVG Version: 6.00 Build 0)  -->
<svg version="1.1" id="Layer_1" xmlns="http://www.w3.org/2000/svg" xmlns:xlink="http://www.w3.org/1999/xlink" x="0px" y="0px"
	 viewBox="0 0 403 94.2" style="enable-background:new 0 0 403 94.2;" xml:space="preserve">
<style type="text/css">
	.st0{fill:#DDAE80;}
</style>
<g id="Group_6_00000018209487363914308070000011774354230732609197_" transform="translate(-158.971 -200.366)">
	<g id="Group_2_00000082353639573968373940000000891300726846627736_" transform="translate(277.43 222.751)">
		<path id="Path_1484_00000094608861483584803450000018223275943494315412_" class="st0" d="M8.7,40c-2.8,0-5-0.7-6.5-2.1
			C0.7,36.4-0.1,34.2,0,32v-0.9c0-2.7,0.8-4.7,2.5-6.1c1.7-1.3,4.3-2.2,8-2.7l8.6-1.2l0.3,4.1l-8.2,1.2C9.7,26.5,8.2,27,7,27.8
			c-0.9,0.7-1.3,1.8-1.3,3v0.4c-0.1,1.1,0.4,2.2,1.2,3c1.1,0.8,2.4,1.2,3.7,1.1c1.3,0,2.7-0.2,3.9-0.8c2-0.9,3.5-2.7,4.1-4.8
			l0.8,3.8h-1.1c-0.3,1.2-0.8,2.3-1.5,3.2c-0.8,1-1.8,1.9-3,2.4C12.2,39.8,10.5,40.1,8.7,40z M18.4,39.4l0.2-6.8l-0.2-0.9v-9l0-1.4
			c0-2.2-0.6-3.8-1.7-4.9c-1.1-1-2.9-1.6-5.4-1.6c-1.9,0-3.8,0.3-5.6,0.8c-1.6,0.5-3.2,1.2-4.6,2l0.5-4.8c0.9-0.5,1.8-0.9,2.7-1.3
			c1.2-0.5,2.3-0.8,3.6-1.1c1.4-0.3,2.9-0.4,4.4-0.4c1.9,0,3.7,0.2,5.5,0.8c2.7,0.8,4.9,3,5.6,5.7c0.4,1.5,0.6,3,0.6,4.6v18.2
			L18.4,39.4z"/>
		<path id="Path_1485_00000011031175629256889760000003116167105696283537_" class="st0" d="M36.1,10.8v17.6c0,1.2,0.2,2.4,0.6,3.6
			c0.3,1,1,1.8,1.9,2.4c1.1,0.6,2.3,0.9,3.5,0.8c1.2,0,2.5-0.2,3.6-0.8c1-0.5,1.8-1.2,2.5-2.1c0.6-0.9,1.1-1.9,1.3-2.9l0.9,4h-1.2
			c-0.3,1.2-0.9,2.3-1.6,3.3c-0.8,1-1.8,1.8-3,2.4c-1.5,0.6-3.1,0.9-4.7,0.9c-1.9,0.1-3.8-0.4-5.4-1.3c-1.4-0.9-2.5-2.2-3.1-3.7
			c-0.7-1.9-1-3.9-1-5.9V10.8L36.1,10.8z M55.1,10.8v28.6h-5.7l0.2-6.7l-0.2-0.4V10.8H55.1z"/>
		<path id="Path_1486_00000150072883789990764930000012764017230816049542_" class="st0" d="M62.3,39.4V10.8h5.6l-0.3,8.3l0.4,0.4
			v19.8L62.3,39.4z M67.8,22.1l-1.2-4.5H68c0.5-2,1.5-3.9,3-5.3c1.6-1.4,3.7-2.1,5.8-1.9c0.5,0,1,0,1.6,0.1c0.4,0.1,0.8,0.2,1.2,0.3
			l0.3,5.6c-0.5-0.2-1-0.3-1.6-0.4c-0.6-0.1-1.3-0.1-1.9-0.1c-1.9,0-3.8,0.5-5.4,1.6C69.6,18.6,68.4,20.3,67.8,22.1L67.8,22.1z"/>
		<path id="Path_1487_00000018943777611982753080000008343333571314016948_" class="st0" d="M90.8,40c-2.8,0-5-0.7-6.5-2.1
			c-1.6-1.6-2.4-3.7-2.3-5.9v-0.9c0-2.7,0.8-4.7,2.5-6.1c1.7-1.3,4.3-2.2,8-2.7l8.6-1.2l0.3,4.1l-8.2,1.2c-1.5,0.1-2.9,0.6-4.2,1.4
			c-0.9,0.7-1.3,1.8-1.3,3v0.4c-0.1,1.1,0.4,2.2,1.2,3c1.1,0.8,2.4,1.2,3.7,1.1c1.3,0,2.7-0.2,3.9-0.8c2-0.9,3.5-2.7,4.1-4.8
			l0.8,3.8h-1.1c-0.3,1.2-0.8,2.3-1.6,3.2c-0.8,1-1.8,1.9-3,2.4C94.2,39.8,92.5,40.1,90.8,40z M100.5,39.4l0.2-6.8l-0.2-0.9v-9
			l0-1.4c0.2-1.8-0.5-3.5-1.7-4.9c-1.1-1-2.9-1.5-5.4-1.6c-1.9,0-3.8,0.3-5.6,0.8c-1.6,0.5-3.2,1.2-4.6,2l0.5-4.8
			c0.9-0.5,1.8-0.9,2.7-1.3c1.2-0.5,2.3-0.8,3.6-1.1c1.4-0.3,2.9-0.4,4.4-0.4c1.9,0,3.7,0.2,5.5,0.8c1.4,0.4,2.6,1.2,3.6,2.2
			c0.9,1,1.6,2.2,2,3.5c0.4,1.5,0.6,3,0.6,4.6v18.2L100.5,39.4z"/>
		<path id="Path_1488_00000023273618142288357310000007354348552522767249_" class="st0" d="M113,49.4V10.8h5.7l-0.2,6.7l0.1,1.7v12
			l0,1.1l0.1,8.1v9.1L113,49.4z M127.8,40c-1.5,0-3-0.2-4.4-0.8c-1.2-0.5-2.2-1.3-3-2.3c-0.8-1-1.3-2.2-1.7-3.4h-1.9l1.6-5.4
			c0,1.4,0.4,2.8,1,4c0.6,1,1.5,1.9,2.6,2.4c1.2,0.5,2.5,0.8,3.8,0.8c1.9,0.1,3.7-0.6,5.1-1.9c1.3-1.6,1.9-3.6,1.8-5.6v-5.5
			c0.1-2-0.5-4-1.7-5.6c-1.3-1.3-3.2-2-5.1-1.9c-1.2,0-2.4,0.2-3.5,0.8c-1,0.5-1.9,1.2-2.6,2.1c-0.7,0.9-1.2,1.9-1.4,3l-1.3-3.9h1.7
			c0.3-1.2,0.9-2.3,1.6-3.3c0.8-1,1.8-1.8,3-2.4c1.5-0.6,3.1-0.9,4.8-0.9c3.4,0,6,1.1,7.8,3.2s2.7,5.3,2.7,9.4v4.5
			c0,4.1-0.9,7.3-2.7,9.5S131.4,40,127.8,40L127.8,40z"/>
		<path id="Path_1489_00000008830024426005400890000002193916432412299671_" class="st0" d="M144.7,39.4V0.7h5.7v9.1l-0.1,8.2
			l0.2,0.4v20.9L144.7,39.4z M163.6,39.4V21.7c0-1.2-0.2-2.4-0.6-3.6c-0.3-1-1-1.8-1.9-2.4c-1.1-0.6-2.3-0.9-3.6-0.8
			c-1.2,0-2.5,0.2-3.6,0.8c-1,0.5-1.8,1.2-2.4,2c-0.6,0.9-1.1,1.9-1.3,2.9l-1.1-4h1.4c0.3-1.2,0.9-2.3,1.6-3.3c0.8-1,1.8-1.8,3-2.4
			c1.5-0.6,3.1-0.9,4.6-0.9c1.9-0.1,3.8,0.4,5.4,1.3c1.4,0.9,2.5,2.2,3.1,3.7c0.7,1.9,1,3.9,1,6v18.3L163.6,39.4z"/>
		<path id="Path_1490_00000040544948786520588340000011874502879770926522_" class="st0" d="M179.2,6.6c-0.9,0.1-1.8-0.2-2.5-0.9
			c-0.6-0.7-0.9-1.5-0.8-2.4V3.2c-0.1-0.9,0.2-1.7,0.8-2.4c1.5-1.2,3.6-1.2,5.1,0c0.6,0.7,0.9,1.5,0.8,2.4v0.1
			c0.1,0.9-0.2,1.7-0.8,2.4C181,6.4,180.1,6.7,179.2,6.6z M176.3,39.4V10.8h5.7v28.6L176.3,39.4z"/>
		<path id="Path_1491_00000016075560473305389140000015837301455570344612_" class="st0" d="M187,39.4l9.1-15.7v1.6l-8.9-14.5h3.5
			c1.7,0,3.2,0.9,4.1,2.3l5.3,8.9h0.4l6.6-11.2h6.3l-8.9,14.5v-1.6l9.1,15.7H210c-1.7,0-3.3-0.9-4.1-2.4l-5.4-9.6H200l-6.8,12H187z"
			/>
	</g>
	<g id="Group_3_00000010988992391228977260000008617054622579424160_" transform="translate(158.971 200.366)">
		<path id="Path_1492_00000132084000253478551290000010008452338230452916_" class="st0" d="M44.4,0H33.3c-5.2,0-9.9,2.8-12.5,7.2
			l-10,17.3l20.8,20.9c2.1,2.1,5.5,2.1,7.6,0c0.9-0.9,1.5-2.1,1.6-3.4L44.4,0z"/>
		<path id="Path_1493_00000052822953707736750970000000868354230822614941_" class="st0" d="M92.9,70.8l9.5-16.4
			c2.6-4.5,2.6-10,0-14.5l-7.9-13.6L51.6,47.8c-2.7,1.3-3.7,4.6-2.4,7.3c0.7,1.3,1.8,2.3,3.2,2.7L92.9,70.8z"/>
		<path id="Path_1494_00000121242432233369239820000009162714683658190772_" class="st0" d="M91,20.2l-7.5-13C81,2.8,76.2,0,71,0
			H51.7l-9,40.8c-0.6,2.9,1.2,5.8,4.1,6.4c1.4,0.3,2.9,0,4.1-0.8L91,20.2z"/>
		<path id="Path_1495_00000096782210783768337140000018356906743138731405_" class="st0" d="M50.8,94.2H71c5.2,0,9.9-2.8,12.5-7.2
			l5.7-9.9L50.4,58.7c-2.7-1.3-5.9-0.1-7.2,2.6c-0.5,1.2-0.7,2.5-0.3,3.7L50.8,94.2z"/>
		<path id="Path_1496_00000152234360773818846020000003746690586539310744_" class="st0" d="M7,31l-5.1,8.8c-2.6,4.5-2.6,10,0,14.5
			l7.9,13.7l21.6-10.3c2.7-1.3,3.8-4.5,2.5-7.2c-0.4-0.8-1-1.6-1.8-2.1L7,31z"/>
		<path id="Path_1497_00000100345464348239853100000008938629693328258958_" class="st0" d="M12.6,72.8L20.8,87
			c2.6,4.5,7.4,7.2,12.5,7.2h9.9l-2.6-31.1c-0.3-3-2.9-5.2-5.8-4.9c-0.9,0.1-1.9,0.4-2.6,1L12.6,72.8z"/>
	</g>
	<g id="Group_4_00000163777851316890411500000002323274565265299596_" transform="translate(505.131 241.051)">
		<path id="Path_1498_00000117670334141577577370000004467869898105540778_" class="st0" d="M4,12.8c-0.5,0-1.1,0-1.6-0.2
			c-0.4-0.1-0.9-0.2-1.3-0.4c-0.3-0.1-0.6-0.3-0.9-0.5L0,10.6c0.5,0.3,1.1,0.6,1.7,0.8c0.7,0.2,1.5,0.4,2.2,0.3
			c0.8,0.1,1.6-0.1,2.3-0.6C6.7,10.8,7,10.1,7,9.5V9.3c0-0.4-0.1-0.9-0.3-1.2c-0.2-0.4-0.6-0.6-1-0.8C5.1,7,4.5,6.8,3.8,6.7
			C3.1,6.6,2.3,6.3,1.6,6C1.1,5.7,0.7,5.3,0.4,4.9C0.1,4.3,0,3.8,0,3.2V3.1C0,2.3,0.3,1.4,1,0.8C1.8,0.2,2.9-0.1,3.9,0
			c0.8,0,1.5,0.1,2.3,0.3c0.5,0.2,1,0.4,1.5,0.6l0.1,1.1c-0.5-0.3-1-0.5-1.6-0.7C5.5,1.1,4.8,1,4.1,1.1C3.5,1,3,1.1,2.5,1.3
			C2.1,1.4,1.8,1.7,1.5,2C1.3,2.4,1.2,2.8,1.3,3.2v0c0,0.4,0.1,0.8,0.3,1.1c0.2,0.4,0.6,0.6,1,0.8c0.6,0.3,1.3,0.5,1.9,0.6
			c0.8,0.2,1.5,0.4,2.2,0.7c0.5,0.2,0.9,0.6,1.2,1.1c0.3,0.5,0.4,1.1,0.4,1.7v0.2c0.1,1-0.3,1.9-1.1,2.5C6.2,12.6,5.1,12.9,4,12.8z"
			/>
		<path id="Path_1499_00000072975622447955788940000002368343000548818875_" class="st0" d="M9.5,1.2v-1h8.8v1H9.5z M13.3,12.6V0.4
			h1.2v12.2H13.3z"/>
		<path id="Path_1500_00000025422369565689527130000013970787214767060916_" class="st0" d="M24.8,12.8c-1.2,0.1-2.4-0.3-3.3-1.2
			c-0.8-1-1.2-2.2-1.1-3.4v-8h1.2v8.1c-0.1,0.9,0.2,1.9,0.8,2.6c1.4,1.2,3.4,1.2,4.8,0c0.5-0.8,0.8-1.7,0.8-2.6V0.2h1.2v8
			c0.1,1.2-0.3,2.4-1.1,3.4C27.3,12.5,26.1,12.9,24.8,12.8z"/>
		<path id="Path_1501_00000182504703061900892420000002821059938906343085_" class="st0" d="M32.3,12.6V0.2h1.2v12.4H32.3z
			 M33.1,12.6v-1h3.1c1,0.1,2-0.3,2.7-1c0.6-0.8,1-1.8,0.9-2.8V5c0.1-1-0.3-2-0.9-2.8c-0.7-0.7-1.7-1-2.7-1h-3.1v-1h3.2
			c1.3-0.1,2.6,0.4,3.6,1.2c0.9,1,1.3,2.2,1.2,3.5v2.9c0.1,1.3-0.4,2.6-1.2,3.5c-1,0.9-2.2,1.3-3.6,1.2L33.1,12.6z"/>
		<path id="Path_1502_00000182520160716724270410000014985209460723391411_" class="st0" d="M44.9,12.6h-1.2V0.2h1.2V12.6z"/>
		<path id="Path_1503_00000159455682995015326570000017608721992431861407_" class="st0" d="M52.2,12.8c-1.3,0.1-2.5-0.4-3.4-1.3
			c-0.8-1-1.3-2.3-1.2-3.6v-3c-0.1-1.3,0.3-2.6,1.2-3.6c2-1.7,4.9-1.7,6.9,0c0.8,1,1.3,2.3,1.2,3.6v3c0.1,1.3-0.3,2.6-1.2,3.6
			C54.7,12.5,53.4,12.9,52.2,12.8z M52.2,11.8c1,0.1,1.9-0.3,2.5-1C55.3,10,55.6,9,55.6,8V4.9c0.1-1-0.2-2-0.9-2.8
			c-1.4-1.3-3.6-1.3-5.1,0c-0.6,0.8-0.9,1.8-0.9,2.8V8c-0.1,1,0.2,2,0.9,2.8C50.3,11.5,51.2,11.9,52.2,11.8L52.2,11.8z"/>
	</g>
	<g id="Group_5_00000166660202585399060320000011311200909389175171_" transform="translate(490.968 220.323)">
		<path id="Path_1504_00000060743773883859455770000009132977016219394457_" class="st0" d="M0,0.5V0h4.4v0.5H0z M1.9,6.3V0.1h0.6
			v6.2H1.9z"/>
		<path id="Path_1505_00000124854155634448695030000008251293366984890023_" class="st0" d="M5.4,6.3L5.7,0h1l1.6,4.8h0.1L10,0h1
			l0.3,6.3h-0.6l-0.1-2.8l-0.1-2.8h-0.1L8.7,5.5H8L6.3,0.6H6.2L6.1,3.5L6,6.3H5.4z"/>
	</g>
</g>
</svg>
