<?xml version="1.0" encoding="utf-8"?>
<!-- Generator: Adobe Illustrator 26.3.1, SVG Export Plug-In . SVG Version: 6.00 Build 0)  -->
<svg version="1.1" id="Layer_1" xmlns="http://www.w3.org/2000/svg" xmlns:xlink="http://www.w3.org/1999/xlink" x="0px" y="0px"
	 viewBox="0 0 402.96 94.22" style="enable-background:new 0 0 402.96 94.22;" xml:space="preserve">
<style type="text/css">
	.st0{fill:#FFFFFF;}
</style>
<g id="Group_6" transform="translate(-158.971 -200.366)">
	<g id="Group_2" transform="translate(277.43 222.751)">
		<path id="Path_1484" class="st0" d="M8.74,40.04c-2.82,0-4.98-0.7-6.49-2.09C0.68,36.38-0.14,34.21,0,32v-0.88
			c0-2.72,0.84-4.74,2.53-6.06c1.69-1.32,4.34-2.23,7.96-2.73l8.59-1.23l0.32,4.15l-8.24,1.17c-1.5,0.11-2.94,0.59-4.2,1.41
			C6.1,28.57,5.63,29.67,5.7,30.8v0.41c-0.07,1.13,0.37,2.24,1.21,3.01c1.07,0.78,2.38,1.15,3.69,1.05
			c1.35,0.04,2.68-0.22,3.92-0.76c2.03-0.9,3.53-2.69,4.06-4.85l0.79,3.83h-1.05c-0.31,1.17-0.83,2.27-1.55,3.24
			c-0.78,1.05-1.83,1.88-3.02,2.4C12.16,39.79,10.45,40.1,8.74,40.04z M18.41,39.39l0.24-6.78l-0.21-0.88v-9l0.03-1.43
			c0-2.2-0.56-3.82-1.68-4.85c-1.12-1.03-2.92-1.55-5.39-1.55c-1.89-0.02-3.78,0.27-5.58,0.85c-1.6,0.52-3.16,1.17-4.65,1.96
			l0.52-4.79c0.88-0.5,1.8-0.94,2.74-1.32c1.15-0.46,2.35-0.81,3.57-1.05c1.43-0.28,2.89-0.42,4.35-0.41
			c1.86-0.05,3.72,0.22,5.49,0.77c2.73,0.83,4.85,3,5.63,5.75c0.44,1.48,0.65,3.02,0.63,4.56V39.4L18.41,39.39z"/>
		<path id="Path_1485" class="st0" d="M36.14,10.82v17.65c-0.02,1.22,0.17,2.43,0.57,3.58c0.35,0.98,1.01,1.82,1.89,2.38
			c1.07,0.61,2.3,0.91,3.54,0.85c1.25,0.03,2.48-0.23,3.61-0.76c0.97-0.48,1.82-1.19,2.47-2.06c0.64-0.87,1.1-1.86,1.34-2.91
			l0.94,3.97h-1.23c-0.33,1.19-0.89,2.3-1.64,3.27c-0.8,1.03-1.85,1.84-3.04,2.37c-1.49,0.63-3.09,0.92-4.7,0.88
			c-1.89,0.08-3.76-0.36-5.42-1.27c-1.41-0.86-2.49-2.17-3.07-3.71c-0.7-1.9-1.03-3.92-0.98-5.95V10.81L36.14,10.82z M55.08,10.82
			v28.58h-5.73l0.23-6.69l-0.23-0.35V10.82H55.08z"/>
		<path id="Path_1486" class="st0" d="M62.33,39.39V10.81h5.58l-0.26,8.33l0.41,0.41v19.84L62.33,39.39z M67.82,22.12l-1.23-4.47H68
			c0.48-2.04,1.53-3.89,3.04-5.34c1.62-1.36,3.7-2.06,5.82-1.94c0.52-0.01,1.05,0.04,1.56,0.13c0.42,0.08,0.83,0.18,1.24,0.31
			L80,16.39c-0.51-0.17-1.04-0.29-1.57-0.37c-0.63-0.09-1.26-0.13-1.9-0.13c-1.92-0.05-3.81,0.51-5.4,1.6
			C69.56,18.65,68.4,20.27,67.82,22.12L67.82,22.12z"/>
		<path id="Path_1487" class="st0" d="M90.82,40.04c-2.82,0-4.99-0.7-6.49-2.09c-1.57-1.57-2.39-3.73-2.25-5.95v-0.88
			c0-2.72,0.84-4.74,2.53-6.06c1.69-1.32,4.34-2.23,7.96-2.73l8.59-1.23l0.32,4.15l-8.24,1.17c-1.5,0.11-2.94,0.59-4.2,1.41
			c-0.87,0.73-1.33,1.83-1.26,2.97v0.41c-0.07,1.14,0.38,2.24,1.22,3.01c1.06,0.78,2.37,1.15,3.69,1.05
			c1.35,0.04,2.68-0.22,3.92-0.76c2.03-0.9,3.53-2.69,4.05-4.85l0.79,3.83h-1.05c-0.31,1.17-0.84,2.27-1.55,3.24
			c-0.78,1.05-1.82,1.88-3.02,2.4C94.24,39.79,92.54,40.1,90.82,40.04z M100.49,39.39l0.24-6.78l-0.21-0.88v-9l0.03-1.43
			c0.15-1.78-0.46-3.55-1.68-4.85c-1.12-1.03-2.92-1.55-5.39-1.55c-1.89-0.02-3.78,0.27-5.58,0.85c-1.6,0.52-3.16,1.17-4.65,1.96
			l0.53-4.79c0.88-0.5,1.8-0.94,2.74-1.32c1.15-0.46,2.35-0.81,3.56-1.05c1.43-0.28,2.89-0.42,4.35-0.41
			c1.86-0.05,3.72,0.22,5.49,0.77c1.37,0.44,2.62,1.2,3.62,2.23c0.93,1,1.61,2.2,2,3.51c0.44,1.48,0.65,3.02,0.63,4.56v18.17
			L100.49,39.39z"/>
		<path id="Path_1488" class="st0" d="M112.97,49.44V10.81h5.73l-0.24,6.69l0.09,1.7v11.98l-0.03,1.11l0.15,8.09v9.06L112.97,49.44z
			 M127.84,40.04c-1.5,0.04-2.98-0.24-4.37-0.8c-1.17-0.5-2.19-1.28-2.97-2.28c-0.78-1.02-1.34-2.19-1.67-3.43h-1.9l1.61-5.4
			c0,1.39,0.35,2.76,1.02,3.99c0.6,1.04,1.5,1.87,2.58,2.38c1.2,0.55,2.5,0.81,3.82,0.79c1.88,0.12,3.72-0.57,5.05-1.91
			c1.27-1.59,1.9-3.6,1.75-5.63v-5.46c0.14-2-0.48-3.99-1.73-5.55c-1.34-1.34-3.18-2.03-5.07-1.9c-1.22-0.02-2.44,0.24-3.54,0.76
			c-1,0.48-1.88,1.18-2.56,2.06c-0.67,0.88-1.16,1.89-1.41,2.97l-1.34-3.92h1.67c0.32-1.18,0.85-2.3,1.58-3.28
			c0.77-1.03,1.79-1.84,2.96-2.35c1.5-0.63,3.12-0.93,4.75-0.88c3.41,0,6,1.07,7.78,3.21s2.67,5.27,2.68,9.38v4.53
			c0,4.15-0.9,7.31-2.69,9.48S131.39,40.03,127.84,40.04L127.84,40.04z"/>
		<path id="Path_1489" class="st0" d="M144.7,39.39V0.71h5.7v9.12l-0.15,8.24l0.18,0.41v20.92L144.7,39.39z M163.64,39.39V21.75
			c0.03-1.22-0.17-2.44-0.57-3.6c-0.35-0.97-1-1.8-1.87-2.37c-1.08-0.62-2.31-0.91-3.55-0.85c-1.24-0.03-2.46,0.23-3.58,0.76
			c-0.97,0.48-1.81,1.18-2.45,2.05c-0.63,0.88-1.09,1.87-1.34,2.92l-1.14-3.98h1.43c0.33-1.19,0.88-2.31,1.64-3.28
			c0.81-1.02,1.85-1.83,3.04-2.35c1.47-0.62,3.05-0.92,4.65-0.88c1.89-0.08,3.78,0.36,5.44,1.27c1.4,0.87,2.47,2.17,3.06,3.7
			c0.7,1.91,1.03,3.93,0.98,5.96v18.29L163.64,39.39z"/>
		<path id="Path_1490" class="st0" d="M179.21,6.61c-0.93,0.07-1.84-0.24-2.53-0.86c-0.58-0.65-0.88-1.51-0.83-2.38V3.25
			c-0.05-0.87,0.25-1.73,0.83-2.38c1.49-1.15,3.57-1.15,5.06,0c0.58,0.65,0.88,1.51,0.83,2.38v0.12c0.06,0.88-0.24,1.74-0.83,2.4
			C181.04,6.38,180.13,6.68,179.21,6.61z M176.35,39.39V10.82h5.73v28.58L176.35,39.39z"/>
		<path id="Path_1491" class="st0" d="M186.96,39.39l9.14-15.69v1.61l-8.94-14.49h3.54c1.68,0,3.24,0.89,4.09,2.33l5.25,8.89h0.44
			l6.58-11.22h6.25l-8.94,14.49V23.7l9.14,15.69h-3.48c-1.71,0-3.29-0.92-4.13-2.41l-5.42-9.57h-0.44l-6.84,11.98H186.96z"/>
	</g>
	<g id="Group_3" transform="translate(158.971 200.366)">
		<path id="Path_1492" class="st0" d="M44.38,0H33.31c-5.17,0-9.95,2.76-12.53,7.23l-9.99,17.3l20.8,20.93
			c2.1,2.11,5.52,2.12,7.64,0.02c0.9-0.9,1.46-2.09,1.57-3.36L44.38,0z"/>
		<path id="Path_1493" class="st0" d="M92.9,70.76l9.48-16.41c2.59-4.48,2.59-10,0-14.48l-7.87-13.63l-42.9,21.57
			c-2.66,1.34-3.73,4.59-2.39,7.25c0.65,1.29,1.79,2.27,3.17,2.71L92.9,70.76z"/>
		<path id="Path_1494" class="st0" d="M91.02,20.2L83.53,7.23C80.95,2.76,76.17,0,71,0H51.72l-9.04,40.79
			c-0.64,2.91,1.2,5.79,4.12,6.43c1.42,0.31,2.9,0.04,4.11-0.75L91.02,20.2z"/>
		<path id="Path_1495" class="st0" d="M50.84,94.22H71c5.17,0,9.95-2.76,12.53-7.24l5.73-9.91L50.4,58.73
			c-2.7-1.27-5.92-0.11-7.19,2.59c-0.55,1.16-0.66,2.48-0.33,3.71L50.84,94.22z"/>
		<path id="Path_1496" class="st0" d="M7.05,31.03l-5.11,8.85c-2.59,4.48-2.59,10,0,14.48l7.92,13.71l21.57-10.31
			c2.69-1.29,3.83-4.51,2.54-7.2c-0.4-0.84-1.02-1.57-1.79-2.1L7.05,31.03z"/>
		<path id="Path_1497" class="st0" d="M12.6,72.81l8.18,14.17c2.58,4.48,7.36,7.24,12.53,7.24h9.88L40.6,63.1
			c-0.25-2.97-2.86-5.18-5.84-4.92c-0.95,0.08-1.86,0.41-2.64,0.96L12.6,72.81z"/>
	</g>
	<g id="Group_4" transform="translate(505.131 241.051)">
		<path id="Path_1498" class="st0" d="M4.02,12.83c-0.55,0-1.1-0.05-1.64-0.15c-0.45-0.09-0.89-0.22-1.31-0.38
			c-0.33-0.13-0.64-0.28-0.95-0.45L0,10.62c0.54,0.34,1.13,0.6,1.74,0.8c0.71,0.24,1.46,0.35,2.22,0.34
			c0.8,0.06,1.59-0.15,2.26-0.58c0.52-0.41,0.8-1.05,0.75-1.71V9.29c0.02-0.43-0.08-0.85-0.29-1.23C6.44,7.71,6.1,7.44,5.7,7.28
			C5.1,7.02,4.48,6.83,3.84,6.71C3.06,6.55,2.3,6.3,1.58,5.95c-0.5-0.24-0.92-0.62-1.2-1.1c-0.26-0.5-0.38-1.07-0.36-1.63V3.14
			c-0.05-0.88,0.3-1.73,0.96-2.31c0.85-0.61,1.89-0.9,2.94-0.82C4.69,0,5.45,0.09,6.18,0.3C6.7,0.46,7.2,0.67,7.67,0.94l0.12,1.14
			c-0.5-0.3-1.03-0.54-1.58-0.72c-0.69-0.21-1.4-0.31-2.12-0.3C3.53,1.03,2.98,1.12,2.46,1.31C2.08,1.44,1.76,1.7,1.55,2.03
			c-0.2,0.35-0.3,0.74-0.29,1.14v0.05c-0.01,0.4,0.08,0.79,0.27,1.14C1.76,4.71,2.1,4.99,2.49,5.15c0.62,0.27,1.27,0.48,1.94,0.62
			C5.19,5.93,5.94,6.17,6.64,6.5c0.49,0.23,0.9,0.61,1.18,1.07C8.09,8.1,8.21,8.69,8.19,9.28V9.5c0.06,0.95-0.33,1.87-1.05,2.49
			C6.23,12.62,5.13,12.92,4.02,12.83z"/>
		<path id="Path_1499" class="st0" d="M9.51,1.23V0.21h8.81v1.02H9.51z M13.31,12.63V0.4h1.22v12.24H13.31z"/>
		<path id="Path_1500" class="st0" d="M24.85,12.84c-1.22,0.1-2.42-0.33-3.3-1.18c-0.77-0.96-1.16-2.18-1.07-3.41V0.22h1.21v8.06
			c-0.06,0.93,0.21,1.86,0.76,2.62c1.37,1.21,3.43,1.21,4.8,0c0.55-0.76,0.81-1.68,0.75-2.62V0.22h1.22v8.03
			c0.08,1.23-0.3,2.45-1.07,3.41C27.27,12.51,26.06,12.94,24.85,12.84z"/>
		<path id="Path_1501" class="st0" d="M32.27,12.63V0.21h1.19v12.42H32.27z M33.06,12.63V11.6h3.1c0.99,0.07,1.97-0.28,2.68-0.97
			c0.65-0.78,0.97-1.78,0.9-2.79V4.99c0.07-1.01-0.25-2.01-0.9-2.79c-0.72-0.69-1.69-1.04-2.68-0.96h-3.11V0.22h3.15
			c1.3-0.09,2.59,0.35,3.55,1.23c0.86,0.97,1.3,2.24,1.22,3.54v2.87c0.08,1.3-0.35,2.57-1.22,3.54c-0.96,0.88-2.25,1.33-3.55,1.24
			L33.06,12.63z"/>
		<path id="Path_1502" class="st0" d="M44.85,12.63h-1.22V0.21h1.22V12.63z"/>
		<path id="Path_1503" class="st0" d="M52.16,12.84c-1.28,0.09-2.53-0.38-3.45-1.27c-0.84-1.02-1.26-2.32-1.18-3.63V4.9
			c-0.09-1.31,0.33-2.61,1.18-3.62c1.98-1.7,4.91-1.7,6.89,0c0.85,1.01,1.27,2.31,1.18,3.62v3.04c0.09,1.32-0.34,2.62-1.18,3.63
			C54.69,12.47,53.43,12.93,52.16,12.84z M52.16,11.82c0.95,0.07,1.89-0.3,2.54-1c0.62-0.81,0.93-1.82,0.86-2.84V4.86
			c0.07-1.02-0.24-2.03-0.86-2.84c-1.43-1.33-3.65-1.33-5.08,0C49,2.83,48.69,3.84,48.76,4.86v3.12C48.69,9,49,10.01,49.62,10.82
			C50.27,11.52,51.2,11.89,52.16,11.82L52.16,11.82z"/>
	</g>
	<g id="Group_5" transform="translate(490.968 220.323)">
		<path id="Path_1504" class="st0" d="M0,0.52V0h4.45v0.52H0z M1.91,6.27V0.09h0.61v6.17H1.91z"/>
		<path id="Path_1505" class="st0" d="M5.4,6.27L5.67,0h0.98L8.3,4.81h0.07L10.02,0h0.99l0.26,6.27h-0.6l-0.1-2.81l-0.1-2.83h-0.09
			L8.69,5.55H8L6.31,0.62H6.22l-0.1,2.84l-0.1,2.8H5.4z"/>
	</g>
</g>
</svg>
